<?xml version="1.0" encoding="UTF-8" standalone="no"?>
<!DOCTYPE svg PUBLIC "-//W3C//DTD SVG 1.0//EN" "http://www.w3.org/TR/2001/PR-SVG-20010719/DTD/svg10.dtd">
<svg width="23cm" height="21cm" viewBox="232 21 455 412" xmlns="http://www.w3.org/2000/svg" xmlns:xlink="http://www.w3.org/1999/xlink">
  <g>
    <path style="fill: #90ee90" d="M 309.75 47.5701 C 309.75,40 329.25,40 329.25,47.5701 L 309.75,47.5701z"/>
    <polygon style="fill: #90ee90" points="300,47.5701 339,70 339,47.5701 300,70 "/>
    <polygon style="fill: none; fill-opacity:0; stroke-width: 1; stroke: #000000" points="300,47.5701 339,70 339,47.5701 300,70 "/>
    <line style="fill: none; fill-opacity:0; stroke-width: 1; stroke: #000000" x1="319.5" y1="58.785" x2="319.5" y2="47.5701"/>
    <line style="fill: none; fill-opacity:0; stroke-width: 1; stroke: #000000" x1="309.75" y1="47.5701" x2="329.25" y2="47.5701"/>
    <path style="fill: none; fill-opacity:0; stroke-width: 1; stroke: #000000" d="M 309.75 47.5701 C 309.75,40 329.25,40 329.25,47.5701"/>
  </g>
  <g>
    <polygon style="fill: #e5e5e5" points="331,160 378.778,160 378.778,277.143 498.222,277.143 498.222,160 546,160 546,324 331,324 "/>
    <polyline style="fill: none; fill-opacity:0; stroke-width: 1; stroke: #000000" points="331,160 331,324 546,324 546,160 "/>
    <polyline style="fill: none; fill-opacity:0; stroke-width: 1; stroke: #000000" points="378.778,160 378.778,277.143 498.222,277.143 498.222,160 "/>
  </g>
  <g>
    <polygon style="fill: #ffffff" points="340,100 534,100 534,272.667 437,359 340,272.667 "/>
    <polygon style="fill: none; fill-opacity:0; stroke-width: 1; stroke: #000000" points="340,100 534,100 534,272.667 437,359 340,272.667 "/>
  </g>
  <g>
    <path style="fill: #90ee90" d="M 423.093 385 C 413,385 413,399 423.093,399 L 423.093,385z"/>
    <polygon style="fill: #90ee90" points="423.093,378 453,406 423.093,406 453,378 "/>
    <polygon style="fill: none; fill-opacity:0; stroke-width: 1; stroke: #000000" points="423.093,378 453,406 423.093,406 453,378 "/>
    <line style="fill: none; fill-opacity:0; stroke-width: 1; stroke: #000000" x1="438.047" y1="392" x2="423.093" y2="392"/>
    <line style="fill: none; fill-opacity:0; stroke-width: 1; stroke: #000000" x1="423.093" y1="385" x2="423.093" y2="399"/>
    <path style="fill: none; fill-opacity:0; stroke-width: 1; stroke: #000000" d="M 423.093 385 C 413,385 413,399 423.093,399"/>
  </g>
  <g>
    <ellipse style="fill: #90ee90" cx="331.75" cy="111.75" rx="21.75" ry="21.75"/>
    <ellipse style="fill: none; fill-opacity:0; stroke-width: 1; stroke: #000000" cx="331.75" cy="111.75" rx="21.75" ry="21.75"/>
    <text font-size="12.8" style="fill: #000000;text-anchor:middle;font-family:sans-serif;font-style:normal;font-weight:normal" x="331.75" y="116.55">
      <tspan x="331.75" y="116.55">LS3</tspan>
    </text>
  </g>
  <line style="fill: none; fill-opacity:0; stroke-width: 1; stroke: #000000" x1="240" y1="60" x2="300" y2="58.785"/>
  <g>
    <polyline style="fill: none; fill-opacity:0; stroke-width: 1; stroke: #000000" points="339,58.785 404.667,58.785 404.667,89.5 "/>
    <polygon style="fill: #000000" points="399.667,89.5 404.667,99.5 409.667,89.5 "/>
    <polygon style="fill: none; fill-opacity:0; stroke-width: 1; stroke: #000000" points="399.667,89.5 404.667,99.5 409.667,89.5 "/>
  </g>
  <line style="fill: none; fill-opacity:0; stroke-width: 1; stroke: #000000" x1="437" y1="359" x2="438.046" y2="378"/>
  <g>
    <line style="fill: none; fill-opacity:0; stroke-width: 1; stroke: #000000" x1="438.046" y1="406" x2="438.019" y2="421.5"/>
    <polygon style="fill: #000000" points="433.019,421.491 438.001,431.5 443.019,421.509 "/>
    <polygon style="fill: none; fill-opacity:0; stroke-width: 1; stroke: #000000" points="433.019,421.491 438.001,431.5 443.019,421.509 "/>
  </g>
  <g>
    <path style="fill: #90ee90" d="M 577 215.093 C 577,205 597,205 597,215.093 L 577,215.093z"/>
    <polygon style="fill: #90ee90" points="567,215.093 607,245 607,215.093 567,245 "/>
    <polygon style="fill: none; fill-opacity:0; stroke-width: 1; stroke: #000000" points="567,215.093 607,245 607,215.093 567,245 "/>
    <line style="fill: none; fill-opacity:0; stroke-width: 1; stroke: #000000" x1="587" y1="230.047" x2="587" y2="215.093"/>
    <line style="fill: none; fill-opacity:0; stroke-width: 1; stroke: #000000" x1="577" y1="215.093" x2="597" y2="215.093"/>
    <path style="fill: none; fill-opacity:0; stroke-width: 1; stroke: #000000" d="M 577 215.093 C 577,205 597,205 597,215.093"/>
  </g>
  <g>
    <ellipse style="fill: #90ee90" cx="331.75" cy="171.75" rx="21.75" ry="21.75"/>
    <ellipse style="fill: none; fill-opacity:0; stroke-width: 1; stroke: #000000" cx="331.75" cy="171.75" rx="21.75" ry="21.75"/>
    <text font-size="12.8" style="fill: #000000;text-anchor:middle;font-family:sans-serif;font-style:normal;font-weight:normal" x="331.75" y="176.55">
      <tspan x="331.75" y="176.55">LS2</tspan>
    </text>
  </g>
  <g>
    <ellipse style="fill: #90ee90" cx="331.75" cy="251.75" rx="21.75" ry="21.75"/>
    <ellipse style="fill: none; fill-opacity:0; stroke-width: 1; stroke: #000000" cx="331.75" cy="251.75" rx="21.75" ry="21.75"/>
    <text font-size="12.8" style="fill: #000000;text-anchor:middle;font-family:sans-serif;font-style:normal;font-weight:normal" x="331.75" y="256.55">
      <tspan x="331.75" y="256.55">LS1</tspan>
    </text>
  </g>
  <g>
    <line style="fill: none; fill-opacity:0; stroke-width: 1; stroke: #000000" x1="567" y1="230.046" x2="556.994" y2="230.066"/>
    <polygon style="fill: #000000" points="556.984,225.066 546.994,230.085 557.004,235.066 "/>
    <polygon style="fill: none; fill-opacity:0; stroke-width: 1; stroke: #000000" points="556.984,225.066 546.994,230.085 557.004,235.066 "/>
  </g>
  <line style="fill: none; fill-opacity:0; stroke-width: 1; stroke: #000000" x1="639" y1="230" x2="607" y2="230.046"/>
  <g>
    <ellipse style="fill: #90ee90" cx="561.75" cy="121.75" rx="21.75" ry="21.75"/>
    <ellipse style="fill: none; fill-opacity:0; stroke-width: 1; stroke: #000000" cx="561.75" cy="121.75" rx="21.75" ry="21.75"/>
    <text font-size="12.8" style="fill: #000000;text-anchor:middle;font-family:sans-serif;font-style:normal;font-weight:normal" x="561.75" y="126.55">
      <tspan x="561.75" y="126.55">TE1</tspan>
    </text>
  </g>
  <g>
    <line style="fill: none; fill-opacity:0; stroke-width: 1; stroke: #000000" x1="540" y1="121.75" x2="522" y2="121.946"/>
    <path style="fill: #ffffff" d="M 517.5 121.995 C 517.486,120.745 518.723,119.481 519.973,119.468 C 521.223,119.454 522.486,120.69 522.5,121.94 C 522.513,123.19 521.277,124.454 520.027,124.467 C 518.777,124.481 517.514,123.244 517.5,121.995z"/>
    <path style="fill: none; fill-opacity:0; stroke-width: 1; stroke: #000000" d="M 517.5 121.995 C 517.486,120.745 518.723,119.481 519.973,119.468 C 521.223,119.454 522.486,120.69 522.5,121.94 C 522.513,123.19 521.277,124.454 520.027,124.467 C 518.777,124.481 517.514,123.244 517.5,121.995"/>
    <line style="fill: none; fill-opacity:0; stroke-width: 1; stroke: #000000" x1="520.054" y1="126.967" x2="519.945" y2="116.968"/>
  </g>
  <text font-size="13.5918" style="fill: #000000;text-anchor:start;font-family:sans-serif;font-style:normal;font-weight:normal" x="316" y="35">
    <tspan x="316" y="35">LVS1</tspan>
  </text>
  <text font-size="13.5918" style="fill: #000000;text-anchor:start;font-family:sans-serif;font-style:normal;font-weight:normal" x="581.9" y="196.3">
    <tspan x="581.9" y="196.3">TV1</tspan>
  </text>
  <text font-size="13.5918" style="fill: #000000;text-anchor:start;font-family:sans-serif;font-style:normal;font-weight:normal" x="388.9" y="375.3">
    <tspan x="388.9" y="375.3">LVS3</tspan>
  </text>
  <g>
    <path style="fill: #90ee90" d="M 494.15 50.2701 C 494.15,42.7 513.65,42.7 513.65,50.2701 L 494.15,50.2701z"/>
    <polygon style="fill: #90ee90" points="484.4,50.2701 523.4,72.7 523.4,50.2701 484.4,72.7 "/>
    <polygon style="fill: none; fill-opacity:0; stroke-width: 1; stroke: #000000" points="484.4,50.2701 523.4,72.7 523.4,50.2701 484.4,72.7 "/>
    <line style="fill: none; fill-opacity:0; stroke-width: 1; stroke: #000000" x1="503.9" y1="61.485" x2="503.9" y2="50.2701"/>
    <line style="fill: none; fill-opacity:0; stroke-width: 1; stroke: #000000" x1="494.15" y1="50.2701" x2="513.65" y2="50.2701"/>
    <path style="fill: none; fill-opacity:0; stroke-width: 1; stroke: #000000" d="M 494.15 50.2701 C 494.15,42.7 513.65,42.7 513.65,50.2701"/>
  </g>
  <line style="fill: none; fill-opacity:0; stroke-width: 1; stroke: #000000" x1="523.4" y1="61.485" x2="584.41" y2="59.21"/>
  <g>
    <polyline style="fill: none; fill-opacity:0; stroke-width: 1; stroke: #000000" points="484.4,61.485 437,61.485 437,89.5 "/>
    <polygon style="fill: #000000" points="432,89.5 437,99.5 442,89.5 "/>
    <polygon style="fill: none; fill-opacity:0; stroke-width: 1; stroke: #000000" points="432,89.5 437,99.5 442,89.5 "/>
  </g>
  <text font-size="13.5918" style="fill: #000000;text-anchor:start;font-family:sans-serif;font-style:normal;font-weight:normal" x="484.9" y="35.3">
    <tspan x="484.9" y="35.3">LVS2</tspan>
  </text>
  <text font-size="12.8" style="fill: #000000;text-anchor:start;font-family:sans-serif;font-style:normal;font-weight:normal" x="232" y="51">
    <tspan x="232" y="51">речовина 1</tspan>
  </text>
  <text font-size="12.8" style="fill: #000000;text-anchor:start;font-family:sans-serif;font-style:normal;font-weight:normal" x="533.9" y="53.5">
    <tspan x="533.9" y="53.5">речовина 2</tspan>
  </text>
  <text font-size="12.8" style="fill: #000000;text-anchor:start;font-family:sans-serif;font-style:normal;font-weight:normal" x="453.9" y="427.5">
    <tspan x="453.9" y="427.5">продукт</tspan>
  </text>
  <text font-size="12.8" style="fill: #000000;text-anchor:start;font-family:sans-serif;font-style:normal;font-weight:normal" x="615.9" y="221.5">
    <tspan x="615.9" y="221.5">гаряча вода</tspan>
  </text>
</svg>
